<svg xmlns="http://www.w3.org/2000/svg" width="44" height="49" viewBox="0 0 44 49">
  <defs>
    <filter id="calendarsync_icon_bold-a" width="139.5%" height="134.1%" x="-19.7%" y="-17%" filterUnits="objectBoundingBox">
      <feOffset dy="1" in="SourceAlpha" result="shadowOffsetOuter1"/>
      <feGaussianBlur in="shadowOffsetOuter1" result="shadowBlurOuter1" stdDeviation="1"/>
      <feColorMatrix in="shadowBlurOuter1" result="shadowMatrixOuter1" values="0 0 0 0 0   0 0 0 0 0   0 0 0 0 0  0 0 0 0.5 0"/>
      <feMerge>
        <feMergeNode in="shadowMatrixOuter1"/>
        <feMergeNode in="SourceGraphic"/>
      </feMerge>
    </filter>
  </defs>
  <g fill="none" fill-rule="evenodd" stroke="#FCF2CB" filter="url(#calendarsync_icon_bold-a)" transform="translate(3 1)">
    <path d="M3.65448505,2.0952381 C1.63616869,2.0952381 0,3.81146611 0,5.92854067 L0,38.5924732 C0,40.4234155 1.23442888,41.9987496 2.94693169,42.3532427 C8.25049213,43.4510947 13.5538527,44 18.8571429,44 C24.1604329,44 29.4637934,43.4510947 34.7673537,42.3532427 C36.4798562,41.9987499 37.7142851,40.4234158 37.7142851,38.5924741 L37.7142857,5.92854067 C37.7142857,3.81146611 36.0781169,2.0952381 34.0598007,2.0952381 L3.65448505,2.0952381 Z"/>
    <path stroke-linecap="square" d="M27.0682111,0 L27.0682111,5.08112259 M13.0527671,0 L13.0527671,5.08112259 M31.4285714,10.3261524 L8.38095238,10.3261524"/>
    <path fill="#FCF2CB" fill-rule="nonzero" d="M11.8509167,31.3863133 L11.8680422,31.4496113 C12.4133005,33.464969 13.8751284,35.0803224 15.786377,35.7794613 C17.7729853,36.5061671 19.9413004,36.5061671 21.9279087,35.7794613 C23.8624172,35.0718139 25.3891962,33.5090668 26.0906134,31.5186916 L26.2060321,31.1913312 C26.407727,30.5669612 26.5105533,29.9131214 26.5105533,29.2549777 L26.5105533,29.0143945 L26.5105533,28.8671161 L26.796012,28.8671161 L26.796012,29.0143945 L26.796012,29.2549777 C26.796012,29.944781 26.6882393,30.6300733 26.4755731,31.2882359 L26.3588855,31.6193543 C25.628336,33.6923972 24.0381443,35.3200504 22.0232888,36.0570893 C19.9749751,36.8063671 17.7393106,36.8063671 15.6909969,36.0570893 C13.6921617,35.3259106 12.1633428,33.6365307 11.5930969,31.5288155 L11.5759715,31.4655173 L10.4761905,31.7823341 L11.0226242,28.8725404 L12.9506977,31.0694964 L11.8509167,31.3863133 Z M25.863369,23.0898772 L25.8462436,23.026579 C25.3009852,21.0112215 23.8391573,19.3958681 21.9279087,18.696729 C19.9413004,17.9700232 17.7729853,17.9700232 15.786377,18.696729 C13.8518685,19.4043766 12.3250895,20.9671235 11.6236723,22.9574988 L11.5082536,23.2848592 C11.3065587,23.9092292 11.2037324,24.563069 11.2037324,25.2212127 L11.2037324,25.4617959 L11.2037324,25.6090743 L10.9182737,25.6090743 L10.9182737,25.4617959 L10.9182737,25.2212127 C10.9182737,24.5314094 11.0260464,23.8461171 11.2387126,23.1879543 L11.3554001,22.856836 C12.0859497,20.7837933 13.6761414,19.1561399 15.6909969,18.4191012 C17.7393106,17.6698234 19.9749751,17.6698234 22.0232888,18.4191012 C24.022124,19.1502796 25.5509429,20.8396596 26.1211888,22.9473748 L26.1383142,23.010673 L27.2380952,22.6938562 L26.6916615,25.60365 L24.763588,23.406694 L25.863369,23.0898772 Z"/>
  </g>
</svg>
