<svg xmlns="http://www.w3.org/2000/svg" width="138" height="156" viewBox="0 0 138 156">
  <defs>
    <filter id="calendarsync_icon-a" width="118.5%" height="116.2%" x="-9.2%" y="-8.1%" filterUnits="objectBoundingBox">
      <feOffset dy="2" in="SourceAlpha" result="shadowOffsetOuter1"/>
      <feGaussianBlur in="shadowOffsetOuter1" result="shadowBlurOuter1" stdDeviation="2"/>
      <feColorMatrix in="shadowBlurOuter1" result="shadowMatrixOuter1" values="0 0 0 0 0   0 0 0 0 0   0 0 0 0 0  0 0 0 0.5 0"/>
      <feMerge>
        <feMergeNode in="shadowMatrixOuter1"/>
        <feMergeNode in="SourceGraphic"/>
      </feMerge>
    </filter>
  </defs>
  <g fill="none" filter="url(#calendarsync_icon-a)" transform="translate(4 2)">
    <path stroke="#FCF2CB" d="M13,10.3319328 C6.09644063,10.3319328 0.5,15.9283734 0.5,22.8319328 L0.5,129.345611 C0.5,135.316123 4.72230786,140.453123 10.5798459,141.609088 C28.7204333,145.189069 46.8603372,146.978992 65,146.978992 C83.1396625,146.978992 101.279566,145.189069 119.420153,141.609088 C125.27769,140.453124 129.499998,135.316124 129.499998,129.345614 L129.5,22.8319328 C129.5,15.9283734 123.903559,10.3319328 117,10.3319328 L13,10.3319328 Z"/>
    <path stroke="#FCF2CB" stroke-linecap="square" d="M90.1260504.546218487L90.1260504 17.4789916M40.9663866.546218487L40.9663866 17.4789916M105.420168 34.9579832L24.5798319 34.9579832"/>
    <path fill="#FCF2CB" d="M41.0024677 100.909643L41.0624604 101.124535C42.9725737 107.966535 48.093553 113.450548 54.7889133 115.824076 61.7482689 118.291192 69.3441681 118.291192 76.3035236 115.824076 83.0803664 113.421662 88.4288783 108.116244 90.8860369 101.359058L91.2903642 100.247692C91.9969285 98.1279991 92.3571429 95.9082585 92.3571429 93.673906L92.3571429 92.8571429 92.3571429 92.3571429 93.3571429 92.3571429 93.3571429 92.8571429 93.3571429 93.673906C93.3571429 96.0157406 92.9796007 98.3422604 92.2346026 100.576677L91.8258303 101.700801C89.2666171 108.738638 83.6959623 114.264408 76.6376528 116.766604 69.462135 119.31035 61.630302 119.31035 54.4547841 116.766604 47.4525962 114.284303 42.0969382 108.548975 40.0992902 101.393428L40.0392976 101.178535 36.1866171 102.254106 38.1008477 92.3755578 44.8551482 99.8340714 41.0024677 100.909643zM90.0899693 79.5336783L90.0299766 79.3187853C88.1198632 72.476786 82.9988839 66.9927731 76.3035236 64.6192445 69.3441681 62.1521286 61.7482689 62.1521286 54.7889133 64.6192445 48.0120705 67.021659 42.6635587 72.3270765 40.2064001 79.0842627L39.8020727 80.1956287C39.0955084 82.3153216 38.7352941 84.5350623 38.7352941 86.7694148L38.7352941 87.5861779 38.7352941 88.0861779 37.7352941 88.0861779 37.7352941 87.5861779 37.7352941 86.7694148C37.7352941 84.4275802 38.1128363 82.1010603 38.8578344 79.8666433L39.2666066 78.7425196C41.8258199 71.7046831 47.3964747 66.1789126 54.4547841 63.6767172 61.630302 61.132971 69.462135 61.132971 76.6376528 63.6767172 83.6398408 66.1590173 88.9954988 71.8943455 90.9931467 79.0498925L91.0531394 79.2647855 94.9058199 78.1892145 92.9915892 88.067763 86.2372888 80.6092493 90.0899693 79.5336783z"/>
  </g>
</svg>
