<svg xmlns="http://www.w3.org/2000/svg" width="46" height="38" viewBox="0 0 46 38">
  <defs>
    <filter id="device_icon_bold-a" width="137.5%" height="142.4%" x="-18.8%" y="-22.7%" filterUnits="objectBoundingBox">
      <feOffset dy="1" in="SourceAlpha" result="shadowOffsetOuter1"/>
      <feGaussianBlur in="shadowOffsetOuter1" result="shadowBlurOuter1" stdDeviation="1"/>
      <feColorMatrix in="shadowBlurOuter1" result="shadowMatrixOuter1" values="0 0 0 0 0   0 0 0 0 0   0 0 0 0 0  0 0 0 0.5 0"/>
      <feMerge>
        <feMergeNode in="shadowMatrixOuter1"/>
        <feMergeNode in="SourceGraphic"/>
      </feMerge>
    </filter>
  </defs>
  <g fill="none" fill-rule="evenodd" filter="url(#device_icon_bold-a)" transform="translate(3 2)">
    <polygon fill="#1E4363" points="3.837 0 7.056 0 10.769 3.077 0 3.077" transform="translate(21.538 23.077)"/>
    <polygon stroke="#FCF2CB" points="25.326 23.077 21.538 26.154 32.308 26.154 28.642 23.077"/>
    <rect width="30.769" height="13.846" fill="#1E4363" transform="translate(9.23 9.23)"/>
    <rect width="30.769" height="13.846" x="9.231" y="9.231" stroke="#FCF2CB"/>
    <path fill="#000" d="M2.97082228,5.60171536e-10 C5.57029175,6.53192116e-10 8.16976125,6.99702157e-10 10.7692307,6.9970166e-10 C13.3687004,6.9970166e-10 15.96817,6.53191475e-10 18.5676397,5.60171105e-10 L18.5676397,4.37359624e-07 C20.2083793,4.37300912e-07 21.5384615,1.21381673 21.5384615,2.71113502 L21.5384615,29.5965573 C21.5384615,31.0938758 20.2083791,32.3076923 18.5676393,32.3076923 C15.9681697,32.3076923 13.3687002,32.3076923 10.7692307,32.3076923 C8.16976125,32.3076923 5.57029175,32.3076923 2.97082228,32.3076923 C1.33008244,32.3076923 -1.820081e-14,31.0938758 -2.13162821e-14,29.5965573 L5.16984002e-07,2.71113454 C5.16984005e-07,1.21381628 1.33008273,5.60171662e-10 2.97082228,5.60171536e-10 Z"/>
    <path fill="#1E4363" stroke="#FCF2CB" d="M2.88014311,0 C1.28948428,0 5.2293381e-07,1.17143243 5.2293381e-07,2.61646756 L0,29.6912243 C0,31.1362598 1.28948399,32.3076923 2.88014311,32.3076923 C4.852415,32.3076923 4.852415,32.3076923 6.82468692,32.3076923 C8.79695881,32.3076923 8.79695881,32.3076923 10.7692307,32.3076923 C12.0840787,32.3076923 12.0840787,32.3076923 13.3989266,32.3076923 C16.0286225,32.3076923 16.0286225,32.3076923 18.6583184,32.3076923 C20.2489775,32.3076923 21.5384615,31.1362598 21.5384615,29.6912243 L21.5384615,2.61646804 C21.5384615,1.17143295 20.2489778,4.21365114e-07 18.6583189,0 C14.7137748,0 14.7137748,0 10.7692307,0 C6.82468692,0 6.82468692,0 2.88014311,0 Z"/>
    <path fill="#FCF2CB" d="M7.69230769,0 L13.8461538,0 L13.8461538,1.02564103 C13.8461538,1.30886397 13.5837566,1.53846154 13.2600733,1.53846154 L8.27838828,1.53846154 C7.95470491,1.53846154 7.69230769,1.30886397 7.69230769,1.02564103 L7.69230769,0 Z"/>
  </g>
</svg>
