<svg xmlns="http://www.w3.org/2000/svg" xmlns:xlink="http://www.w3.org/1999/xlink" width="179" height="151" viewBox="0 0 179 151">
  <defs>
    <polygon id="device_icon-b" points="101.322 100 114.172 100 129 114 86 114"/>
    <filter id="device_icon-a" width="132.6%" height="200%" x="-16.3%" y="-35.7%" filterUnits="objectBoundingBox">
      <feOffset dy="2" in="SourceAlpha" result="shadowOffsetOuter1"/>
      <feMorphology in="SourceAlpha" radius="1" result="shadowInner"/>
      <feOffset dy="2" in="shadowInner" result="shadowInner"/>
      <feComposite in="shadowOffsetOuter1" in2="shadowInner" operator="out" result="shadowOffsetOuter1"/>
      <feGaussianBlur in="shadowOffsetOuter1" result="shadowBlurOuter1" stdDeviation="2"/>
      <feColorMatrix in="shadowBlurOuter1" values="0 0 0 0 0   0 0 0 0 0   0 0 0 0 0  0 0 0 0.5 0"/>
    </filter>
    <rect id="device_icon-d" width="124" height="69" x="47" y="32"/>
    <filter id="device_icon-c" width="111.3%" height="120.3%" x="-5.6%" y="-7.2%" filterUnits="objectBoundingBox">
      <feOffset dy="2" in="SourceAlpha" result="shadowOffsetOuter1"/>
      <feMorphology in="SourceAlpha" radius="1" result="shadowInner"/>
      <feOffset dy="2" in="shadowInner" result="shadowInner"/>
      <feComposite in="shadowOffsetOuter1" in2="shadowInner" operator="out" result="shadowOffsetOuter1"/>
      <feGaussianBlur in="shadowOffsetOuter1" result="shadowBlurOuter1" stdDeviation="2"/>
      <feColorMatrix in="shadowBlurOuter1" values="0 0 0 0 0   0 0 0 0 0   0 0 0 0 0  0 0 0 0.5 0"/>
    </filter>
    <path id="device_icon-f" d="M12,5.60173012e-10 C22.4999999,9.7189982e-10 32.9999999,1.17776212e-09 43.4999998,1.17775992e-09 C54.0000004,1.17775992e-09 64.5000011,9.71896982e-10 75.0000019,5.60171105e-10 L75.0000019,1.93391775e-06 C81.6274179,1.93365788e-06 87,5.37258407 87,12 L87,131 C87,137.627417 81.627417,143 75,143 C64.4999999,143 53.9999999,143 43.4999998,143 C32.9999999,143 22.4999999,143 12,143 L12,143 C5.372583,143 -8.73200006e-15,137.627417 -2.13162821e-14,131 L2.08824616e-06,11.9999979 C2.08824617e-06,5.37258207 5.37258416,5.6017357e-10 12,5.60172353e-10 Z"/>
    <filter id="device_icon-e" width="116.1%" height="109.8%" x="-8%" y="-3.5%" filterUnits="objectBoundingBox">
      <feOffset dy="2" in="SourceAlpha" result="shadowOffsetOuter1"/>
      <feGaussianBlur in="shadowOffsetOuter1" result="shadowBlurOuter1" stdDeviation="2"/>
      <feComposite in="shadowBlurOuter1" in2="SourceAlpha" operator="out" result="shadowBlurOuter1"/>
      <feColorMatrix in="shadowBlurOuter1" values="0 0 0 0 0   0 0 0 0 0   0 0 0 0 0  0 0 0 0.5 0"/>
    </filter>
  </defs>
  <g fill="none" transform="translate(4 2)">
    <use fill="#000" filter="url(#device_icon-a)" xlink:href="#device_icon-b"/>
    <path stroke="#FCF2CB" stroke-linejoin="square" d="M101.515871,100.5 L87.2884488,113.5 L127.742137,113.5 L113.973664,100.5 L101.515871,100.5 Z"/>
    <use fill="#000" filter="url(#device_icon-c)" xlink:href="#device_icon-d"/>
    <rect width="123" height="68" x="47.5" y="32.5" stroke="#FCF2CB" stroke-linejoin="square"/>
    <use fill="#000" filter="url(#device_icon-e)" xlink:href="#device_icon-f"/>
    <path fill="#1E4363" fill-rule="evenodd" stroke="#FCF2CB" stroke-linejoin="square" d="M12,0.500000001 C5.64872653,0.500000001 0.500002088,5.64872444 0.500002088,11.9999979 L0.5,131 C0.5,137.351275 5.64872538,142.5 12,142.5 C19.8749999,142.5 19.8749999,142.5 27.7499999,142.5 C35.6249998,142.5 35.6249998,142.5 43.4999998,142.5 C48.7499998,142.5 48.7499998,142.5 53.9999999,142.5 C64.4999999,142.5 64.4999999,142.5 75,142.5 C81.3512746,142.5 86.5,137.351275 86.5,131 L86.5,12 C86.5,5.64872671 81.3512757,0.500001853 75.0000019,0.500000001 C59.2500008,0.500000001 59.2500008,0.500000001 43.4999998,0.500000001 C27.7499999,0.500000001 27.7499999,0.500000001 12,0.500000001 Z"/>
    <path fill="#FCF2CB" d="M33,0 L54,0 L54,4 C54,5.1045695 53.1045695,6 52,6 L35,6 C33.8954305,6 33,5.1045695 33,4 L33,0 Z"/>
  </g>
</svg>
