<svg xmlns="http://www.w3.org/2000/svg" width="148" height="148" viewBox="0 0 148 148">
  <path fill="#1E4363" d="M25.3649867,147.971811 C13.5749651,146.938226 3.72019804,138.575583 0.789132919,127.12158 C0.591849689,126.341693 0.338199822,125.091994 0.216072109,124.349692 L0,122.996635 L0,73.9953019 L0,24.9939686 L0.216072109,23.6597041 C1.49371588,15.5977398 5.89970801,8.8042664 12.7012822,4.3692464 C15.9047861,2.27388737 19.7471118,0.845660593 23.8149042,0.225509491 L25.2710423,0 L73.9812111,0 C120.540053,0 122.738352,0.00939622881 123.818713,0.169132119 C130.291482,1.14633991 135.411451,3.69271792 139.845627,8.11834169 C144.589818,12.8728335 147.379967,18.8770237 147.91545,25.5295537 C147.990606,26.403403 148.009394,41.1554822 147.990606,74.8409625 L147.962422,122.902673 L147.74635,124.218145 C147.210867,127.516221 146.384156,130.081392 144.956202,132.909657 C143.913419,134.958034 142.598197,136.903054 141.142059,138.547394 C136.698489,143.56498 131.024248,146.684528 124.372985,147.774491 L123.067158,147.990604 L74.4039609,148 C47.6392027,148 25.5716643,147.990604 25.3649867,147.971811 Z M119.638187,110.969462 L119.638187,102.371913 L114.076679,102.371913 C107.303288,102.371913 106.542338,102.306139 105.029834,101.58263 C103.742795,100.971875 103.038213,99.9101009 102.775168,98.1905911 C102.662435,97.4294965 102.634252,96.132817 102.634252,91.4065139 L102.634252,85.5526633 L110.478609,85.5526633 C114.790656,85.5526633 118.322966,85.5338709 118.322966,85.5056822 C118.322966,85.3835312 116.528628,69.0153006 116.481655,68.7146213 L116.425289,68.3575646 L109.52977,68.3575646 L102.634252,68.3575646 L102.634252,42.7058599 L102.634252,17.0541553 L91.079091,17.0541553 L79.5239304,17.0541553 L79.5051416,42.6776713 L79.4769582,68.3105835 L74.9958106,68.3387721 L70.5052685,68.3575646 L70.5052685,76.955114 L70.5052685,85.5526633 L75.005205,85.5526633 L79.514536,85.5526633 L79.5521137,92.768967 C79.5896915,100.643007 79.6178748,101.169196 80.1815412,103.969272 C81.0364352,108.23516 82.4925733,111.22316 84.9163387,113.731954 C87.9413482,116.842105 92.0842961,118.636785 97.7961153,119.294521 C99.5716643,119.491842 101.666624,119.538823 110.647709,119.548219 L119.638187,119.567012 L119.638187,110.969462 Z" transform="matrix(1 0 0 -1 0 148)"/>
</svg>
