<svg xmlns="http://www.w3.org/2000/svg" width="28" height="27" viewBox="0 0 28 27">
  <defs>
    <filter id="heart_icon-a" width="205%" height="205%" x="-52.5%" y="-52.5%" filterUnits="objectBoundingBox">
      <feOffset dy="1" in="SourceAlpha" result="shadowOffsetOuter1"/>
      <feGaussianBlur in="shadowOffsetOuter1" result="shadowBlurOuter1" stdDeviation="2"/>
      <feColorMatrix in="shadowBlurOuter1" result="shadowMatrixOuter1" values="0 0 0 0 0   0 0 0 0 0   0 0 0 0 0  0 0 0 0.5 0"/>
      <feMerge>
        <feMergeNode in="shadowMatrixOuter1"/>
        <feMergeNode in="SourceGraphic"/>
      </feMerge>
    </filter>
  </defs>
  <g fill="#FCF2CB" filter="url(#heart_icon-a)" transform="translate(4 3)">
    <path d="M4.47136157,3.97879573 L15.3108921,4.25669935 C15.8381798,4.27021955 16.2643102,4.69094891 16.2845548,5.21802125 C16.3766885,7.61673469 16.444532,9.66538408 16.4880855,11.3639694 C16.5033234,11.9582478 16.528284,13.5268491 16.5629672,16.0697732 L16.5629386,16.0697736 C16.5704703,16.6219912 16.1289152,17.0757577 15.5766977,17.0832894 C15.5636076,17.083468 15.5505153,17.0833894 15.5374283,17.0830539 L10.8882118,16.9638432 L4.69771108,16.8051124 C4.16551909,16.7914664 3.7373182,16.3632655 3.72367225,15.8310736 L3.44605754,5.00409976 C3.43190104,4.45199648 3.86799308,3.99295223 4.42009637,3.97879573 C4.43718196,3.97835764 4.45427597,3.97835764 4.47136157,3.97879573 Z" transform="rotate(45 10.004 10.53)"/>
    <path d="M13.75,13.1578947 C17.2017797,13.1578947 20,10.2123997 20,6.57894737 C20,2.94549507 17.2017797,0 13.75,0 C12.3457206,0 11.0496111,0.487505124 10.0060788,1.3105074 C8.48456349,2.51048049 7.5,4.42368386 7.5,6.57894737 C7.5,10.2123997 10.2982203,13.1578947 13.75,13.1578947 Z"/>
    <ellipse cx="6.25" cy="6.579" rx="6.25" ry="6.579"/>
  </g>
</svg>
