<svg xmlns="http://www.w3.org/2000/svg" width="38" height="37" viewBox="0 0 38 37">
  <g fill="none" transform="translate(1 -3)">
    <circle cx="10.5" cy="28.5" r="10.5" stroke="#FCF2CB"/>
    <circle cx="11" cy="28" r="3" stroke="#FCF2CB"/>
    <path stroke="#FCF2CB" d="M24.0747944,3.41796726 L23.9421202,25.0451081 L24.8501171,24.842049 L26.9708962,24.7613228 L29.1610016,25.0910627 L29.6741592,25.0907496 L29.6791474,23.907937 L29.7465687,14.3444715 L31.204766,12.8862741 L29.5266754,11.2081836 L31.1736002,9.56125882 L29.5484239,7.73890006 L31.0900741,6.19724984 L29.7376646,4.8448403 L29.7385552,3.38519106 L27.1913556,0.301406012 L24.0747944,3.41796726 Z M23.9420767,25.0522061 L23.9407952,25.261108 L23.699791,25.2596295 L23.6645742,25.1071769 L23.9362839,25.0464133 L23.9420767,25.0522061 Z M29.6830142,25.0907442 L29.834026,25.090652 L29.8341926,25.3638157 L29.682934,25.363178 L29.6730728,25.3483616 L29.6741343,25.0966543 L29.6830142,25.0907442 Z" transform="rotate(45 27.676 12.577)"/>
    <path fill="#1E4363" d="M15,19.5217391 L15.85121,19.5217391 C16.7162633,18.7391304 17.4325267,18.2318841 18,18 C18.5674733,17.7681159 19.128025,18.1594203 19.6816551,19.173913 L21,21 C20.3909967,21.8521739 20.2761399,22.0343183 19.7626894,22.3986071 C19.3558843,22.6872319 19.3292626,23 19.2560501,23 C19.154905,23 18.7362217,23.3333333 18,24 L15,21.8521739 L15,19.5217391 Z"/>
  </g>
</svg>
