<svg xmlns="http://www.w3.org/2000/svg" width="40" height="39" viewBox="0 0 40 39">
  <path fill="#1E4363" d="M39.918051,23.4378654 L39.918051,38.1958237 L31.3623202,38.1958237 L31.3623202,24.4262645 C31.3623202,20.967239 30.124826,18.6065893 27.027935,18.6065893 C24.6638515,18.6065893 23.2569838,20.1974942 22.638051,21.7364269 C22.4123434,22.2865893 22.3542459,23.0523434 22.3542459,23.8224594 L22.3542459,38.1958237 L13.7956381,38.1958237 C13.7956381,38.1958237 13.9109049,14.87471 13.7956381,12.4584687 L22.3534107,12.4584687 L22.3534107,16.1066357 C22.3360557,16.1339211 22.3135035,16.1633411 22.2971694,16.1897912 L22.3534107,16.1897912 L22.3534107,16.1066357 C23.4903944,14.3554524 25.5209281,11.8538283 30.0658933,11.8538283 C35.6967981,11.8537355 39.918051,15.5323434 39.918051,23.4378654 Z M4.84296984,0.0517865429 C1.91508121,0.0517865429 0,1.97225058 0,4.49772622 C0,6.96816705 1.85967517,8.94691415 4.72937355,8.94691415 L4.78654292,8.94691415 C7.77113689,8.94691415 9.62728538,6.96853828 9.62728538,4.49772622 C9.57104408,1.97225058 7.77113689,0.0517865429 4.84296984,0.0517865429 Z M0.508306265,38.1958237 L9.06366589,38.1958237 L9.06366589,12.4584687 L0.508306265,12.4584687 L0.508306265,38.1958237 Z"/>
</svg>
