<svg xmlns="http://www.w3.org/2000/svg" width="40" height="27" viewBox="0 0 40 27">
  <path fill="#1E4363" d="M20.0501961,16.0662745 L20.0587582,16.0662745 C20.3603922,16.0662745 20.6584967,15.9787582 20.8996732,15.8194118 L20.965098,15.7773856 C20.9793464,15.7681046 20.9942484,15.7596732 21.0092157,15.7496732 L21.7711765,15.119281 L39.9580392,0.111176471 C39.9203922,0.0592156863 39.8562745,0.0236601307 39.7879739,0.0236601307 L0.21130719,0.0236601307 C0.162222222,0.0236601307 0.116666667,0.0414379085 0.0803921569,0.0713071895 L19.1081699,15.7545752 C19.3479739,15.9531373 19.6901307,16.0662745 20.0501961,16.0662745 Z M0,2.15026144 L0,24.3966667 L13.630719,13.3854902 L0,2.15026144 Z M26.3835294,13.4601961 L40,24.4023529 L40,2.22424837 L26.3835294,13.4601961 Z M22.0543137,17.0316993 C21.5115033,17.4770588 20.8015033,17.722549 20.0558824,17.722549 C19.307451,17.722549 18.5981046,17.4784967 18.056732,17.0352288 L14.9348366,14.4604575 L0,26.523268 L0,26.561634 C0,26.6762092 0.0981699346,26.7736601 0.214117647,26.7736601 L39.7886928,26.7736601 C39.9024837,26.7736601 39.9999346,26.6762092 39.9999346,26.560915 L39.9999346,26.5253595 L25.0779739,14.5359477 L22.0543137,17.0316993 Z"/>
</svg>
