<svg xmlns="http://www.w3.org/2000/svg" width="50" height="50" viewBox="0 0 50 50">
  <path fill="#1E4363" d="M23.0328237,49.9662997 C21.6164568,49.8202651 19.9415468,49.5281959 18.761241,49.2361267 C10.0269784,47.0343743 3.01258993,40.0696473 0.775629496,31.3525051 C0.168615108,28.9597843 0,27.6005392 0,24.9831499 C0,23.3318355 0.056205036,22.3095933 0.202338129,21.388452 C1.48381295,13.0532465 6.45233813,6.25702089 13.9838129,2.51628847 C17.3898381,0.82004044 20.9644784,0 25,0 C28.147482,0 30.3619604,0.359469782 33.2621403,1.35924511 C41.1870504,4.08896877 47.2234712,10.6829926 49.2918165,18.8721636 C49.8426259,21.0514491 50,22.4443945 50,24.9831499 C50,27.6005392 49.8313849,28.9597843 49.2243705,31.3300382 C46.7401079,40.9795552 38.6578237,48.2475848 28.7095324,49.7528645 C27.5629496,49.921366 23.9545863,50.0561672 23.0328237,49.9662997 Z M33.0148381,35.9132779 C33.8466727,35.6661424 34.5548561,35.2842058 35.2855216,34.688834 C35.8363309,34.2394967 35.959982,34.194563 36.2747302,34.2619636 C36.9491906,34.4079982 38.3205935,34.8910357 38.9838129,35.2280386 C39.3435252,35.4077735 39.6582734,35.5313413 39.6919964,35.5088744 C39.7706835,35.419007 39.4109712,34.7787014 38.8601619,33.9923613 C38.5791367,33.5991912 38.0508094,33.0599865 37.6798561,32.7791508 C37.0503597,32.3185801 37.0278777,32.2848798 37.3201439,32.2848798 C37.7023381,32.2848798 39.2311151,32.6443496 39.9392986,32.9027185 C40.2090827,32.9925859 40.4451439,33.0599865 40.4676259,33.0375197 C40.557554,32.9588856 38.9051259,31.1615367 38.2981115,30.6784992 L37.6236511,30.1392945 L37.544964,28.7238823 C37.3875899,26.005392 36.7918165,23.6239047 35.6901978,21.3547517 C33.1946942,16.2547742 28.9343525,12.9072119 23.392536,11.7052348 C22.4033273,11.4917996 21.897482,11.4580993 19.7729317,11.4580993 C17.6258993,11.4580993 17.142536,11.4917996 16.1645683,11.7052348 C14.6020683,12.0422377 12.9159173,12.648843 11.5669964,13.3340822 L10.4428957,13.9182206 L11.8480216,13.9968546 C13.4217626,14.0754887 14.6357914,14.3001573 15.8273381,14.7270276 C16.8165468,15.075264 18.1317446,15.7605033 18.8624101,16.2997079 L19.4244604,16.7041114 L18.4240108,16.9063132 C17.8732014,17.0186475 17.1088129,17.265783 16.7153777,17.4567513 C15.5238309,18.0521231 14.2760791,19.3439676 13.7702338,20.5122444 L13.5678957,20.995282 L14.7594424,20.995282 C15.4451439,20.995282 16.0409173,21.0514491 16.1758094,21.1300831 C16.3669065,21.2424174 16.3444245,21.2648843 15.8947842,21.388452 C15.0966727,21.6018872 13.9388489,22.2646596 13.3205935,22.848798 C12.2302158,23.8935071 11.5445144,25.2639856 11.3421763,26.8254325 C11.2747302,27.3309369 11.2859712,27.3646372 11.4770683,27.2860031 C12.4213129,26.8928331 12.8821942,26.7580319 13.5229317,26.7018647 L14.2648381,26.6344642 L13.6803058,27.0950348 C11.6007194,28.7575826 10.8250899,31.846776 11.8705036,34.3405976 C11.9941547,34.6326668 12.1178058,34.8685689 12.1402878,34.8685689 C12.1627698,34.8685689 12.7023381,34.351831 13.3430755,33.7227589 C16.3331835,30.7458998 20.290018,28.8699169 24.3705036,28.5104471 L25.2473022,28.4318131 L25.1686151,28.7014154 C25.1124101,28.84745 25.0786871,29.4315884 25.0786871,29.9820265 C25.1011691,32.1051449 26.1016187,33.958661 27.8552158,35.1044709 C29.4289568,36.1379465 31.272482,36.4300157 33.0148381,35.9132779 Z" transform="matrix(1 0 0 -1 0 50)"/>
</svg>
